<svg width="303" height="64" viewBox="0 0 303 64" fill="none" xmlns="http://www.w3.org/2000/svg">
<path d="M81.845 44.999V18.719H86.849V34.055H85.985C85.985 32.087 86.237 30.419 86.741 29.051C87.245 27.683 87.989 26.639 88.973 25.919C89.981 25.199 91.253 24.839 92.789 24.839H93.005C95.237 24.839 96.929 25.607 98.081 27.143C99.233 28.679 99.809 30.911 99.809 33.839V44.999H94.805V33.371C94.805 32.123 94.445 31.139 93.725 30.419C93.029 29.699 92.105 29.339 90.953 29.339C89.729 29.339 88.733 29.747 87.965 30.563C87.221 31.355 86.849 32.399 86.849 33.695V44.999H81.845ZM104.472 52.703V48.419H108.144C108.84 48.419 109.416 48.323 109.872 48.131C110.352 47.963 110.748 47.675 111.06 47.267C111.372 46.883 111.612 46.343 111.78 45.647L117.036 25.451H121.824L116.028 46.727C115.644 48.191 115.104 49.355 114.408 50.219C113.712 51.107 112.812 51.743 111.708 52.127C110.628 52.511 109.284 52.703 107.676 52.703H104.472ZM110.556 44.567V40.607H114.732V44.567H110.556ZM108.864 44.567L102.528 25.451H107.568L113.58 44.567H108.864ZM136.861 44.999V39.203H136.033V32.759C136.033 31.631 135.757 30.791 135.205 30.239C134.653 29.687 133.801 29.411 132.649 29.411C132.049 29.411 131.329 29.423 130.489 29.447C129.649 29.471 128.797 29.507 127.933 29.555C127.093 29.579 126.337 29.615 125.665 29.663V25.415C126.217 25.367 126.841 25.319 127.537 25.271C128.233 25.223 128.941 25.199 129.661 25.199C130.405 25.175 131.101 25.163 131.749 25.163C133.765 25.163 135.433 25.427 136.753 25.955C138.097 26.483 139.105 27.311 139.777 28.439C140.473 29.567 140.821 31.043 140.821 32.867V44.999H136.861ZM130.561 45.503C129.145 45.503 127.897 45.251 126.817 44.747C125.761 44.243 124.933 43.523 124.333 42.587C123.757 41.651 123.469 40.523 123.469 39.203C123.469 37.763 123.817 36.587 124.513 35.675C125.233 34.763 126.229 34.079 127.501 33.623C128.797 33.167 130.309 32.939 132.037 32.939H136.573V35.927H131.965C130.813 35.927 129.925 36.215 129.301 36.791C128.701 37.343 128.401 38.063 128.401 38.951C128.401 39.839 128.701 40.559 129.301 41.111C129.925 41.663 130.813 41.939 131.965 41.939C132.661 41.939 133.297 41.819 133.873 41.579C134.473 41.315 134.965 40.883 135.349 40.283C135.757 39.659 135.985 38.819 136.033 37.763L137.257 39.167C137.137 40.535 136.801 41.687 136.249 42.623C135.721 43.559 134.977 44.279 134.017 44.783C133.081 45.263 131.929 45.503 130.561 45.503ZM146.181 44.999V25.451H150.141V33.839H149.781C149.781 31.847 150.045 30.191 150.573 28.871C151.101 27.527 151.881 26.519 152.913 25.847C153.969 25.175 155.277 24.839 156.837 24.839H157.053C159.381 24.839 161.145 25.595 162.345 27.107C163.545 28.595 164.145 30.827 164.145 33.803V44.999H159.141V33.371C159.141 32.171 158.793 31.199 158.097 30.455C157.425 29.711 156.489 29.339 155.289 29.339C154.065 29.339 153.069 29.723 152.301 30.491C151.557 31.235 151.185 32.243 151.185 33.515V44.999H146.181Z" fill="#F4F4F4"/>
<path d="M169.993 44.999V24.983C169.993 22.751 170.605 21.107 171.829 20.051C173.077 18.971 174.913 18.431 177.337 18.431H179.785V22.283H176.977C176.233 22.283 175.657 22.487 175.249 22.895C174.865 23.279 174.673 23.831 174.673 24.551V44.999H169.993ZM167.545 29.447V25.775H180.109V29.447H167.545ZM191.878 45.683C190.198 45.683 188.722 45.395 187.45 44.819C186.202 44.243 185.158 43.475 184.318 42.515C183.502 41.531 182.878 40.439 182.446 39.239C182.038 38.039 181.834 36.815 181.834 35.567V34.883C181.834 33.587 182.038 32.339 182.446 31.139C182.878 29.915 183.502 28.835 184.318 27.899C185.158 26.939 186.19 26.183 187.414 25.631C188.638 25.055 190.054 24.767 191.662 24.767C193.774 24.767 195.538 25.235 196.954 26.171C198.394 27.083 199.474 28.295 200.194 29.807C200.914 31.295 201.274 32.903 201.274 34.631V36.431H183.958V33.371H198.142L196.594 34.883C196.594 33.635 196.414 32.567 196.054 31.679C195.694 30.791 195.142 30.107 194.398 29.627C193.678 29.147 192.766 28.907 191.662 28.907C190.558 28.907 189.622 29.159 188.854 29.663C188.086 30.167 187.498 30.899 187.09 31.859C186.706 32.795 186.514 33.923 186.514 35.243C186.514 36.467 186.706 37.559 187.09 38.519C187.474 39.455 188.062 40.199 188.854 40.751C189.646 41.279 190.654 41.543 191.878 41.543C193.102 41.543 194.098 41.303 194.866 40.823C195.634 40.319 196.126 39.707 196.342 38.987H200.95C200.662 40.331 200.11 41.507 199.294 42.515C198.478 43.523 197.434 44.303 196.162 44.855C194.914 45.407 193.486 45.683 191.878 45.683ZM205.454 44.999V25.451H209.414V33.731H209.306C209.306 30.923 209.906 28.799 211.106 27.359C212.306 25.919 214.07 25.199 216.398 25.199H217.118V29.555H215.75C214.07 29.555 212.762 30.011 211.826 30.923C210.914 31.811 210.458 33.107 210.458 34.811V44.999H205.454ZM220.466 44.999V25.451H224.426V33.731H224.318C224.318 30.923 224.918 28.799 226.118 27.359C227.318 25.919 229.082 25.199 231.41 25.199H232.13V29.555H230.762C229.082 29.555 227.774 30.011 226.838 30.923C225.926 31.811 225.47 33.107 225.47 34.811V44.999H220.466ZM244.085 45.683C242.405 45.683 240.929 45.395 239.657 44.819C238.409 44.243 237.365 43.475 236.525 42.515C235.709 41.531 235.085 40.439 234.653 39.239C234.245 38.039 234.041 36.815 234.041 35.567V34.883C234.041 33.587 234.245 32.339 234.653 31.139C235.085 29.915 235.709 28.835 236.525 27.899C237.365 26.939 238.397 26.183 239.621 25.631C240.845 25.055 242.261 24.767 243.869 24.767C245.981 24.767 247.745 25.235 249.161 26.171C250.601 27.083 251.681 28.295 252.401 29.807C253.121 31.295 253.481 32.903 253.481 34.631V36.431H236.165V33.371H250.349L248.801 34.883C248.801 33.635 248.621 32.567 248.261 31.679C247.901 30.791 247.349 30.107 246.605 29.627C245.885 29.147 244.973 28.907 243.869 28.907C242.765 28.907 241.829 29.159 241.061 29.663C240.293 30.167 239.705 30.899 239.297 31.859C238.913 32.795 238.721 33.923 238.721 35.243C238.721 36.467 238.913 37.559 239.297 38.519C239.681 39.455 240.269 40.199 241.061 40.751C241.853 41.279 242.861 41.543 244.085 41.543C245.309 41.543 246.305 41.303 247.073 40.823C247.841 40.319 248.333 39.707 248.549 38.987H253.157C252.869 40.331 252.317 41.507 251.501 42.515C250.685 43.523 249.641 44.303 248.369 44.855C247.121 45.407 245.693 45.683 244.085 45.683ZM258.597 44.999V25.451H263.601V44.999H258.597ZM255.861 29.195V25.451H263.601V29.195H255.861ZM260.433 23.111C259.449 23.111 258.717 22.859 258.237 22.355C257.781 21.827 257.553 21.179 257.553 20.411C257.553 19.595 257.781 18.935 258.237 18.431C258.717 17.927 259.449 17.675 260.433 17.675C261.417 17.675 262.137 17.927 262.593 18.431C263.049 18.935 263.277 19.595 263.277 20.411C263.277 21.179 263.049 21.827 262.593 22.355C262.137 22.859 261.417 23.111 260.433 23.111ZM269.368 44.999V25.451H273.328V33.731H273.22C273.22 30.923 273.82 28.799 275.02 27.359C276.22 25.919 277.984 25.199 280.312 25.199H281.032V29.555H279.664C277.984 29.555 276.676 30.011 275.74 30.923C274.828 31.811 274.372 33.107 274.372 34.811V44.999H269.368ZM296.119 44.999V39.203H295.291V32.759C295.291 31.631 295.015 30.791 294.463 30.239C293.911 29.687 293.059 29.411 291.907 29.411C291.307 29.411 290.587 29.423 289.747 29.447C288.907 29.471 288.055 29.507 287.191 29.555C286.351 29.579 285.595 29.615 284.923 29.663V25.415C285.475 25.367 286.099 25.319 286.795 25.271C287.491 25.223 288.199 25.199 288.919 25.199C289.663 25.175 290.359 25.163 291.007 25.163C293.023 25.163 294.691 25.427 296.011 25.955C297.355 26.483 298.363 27.311 299.035 28.439C299.731 29.567 300.079 31.043 300.079 32.867V44.999H296.119ZM289.819 45.503C288.403 45.503 287.155 45.251 286.075 44.747C285.019 44.243 284.191 43.523 283.591 42.587C283.015 41.651 282.727 40.523 282.727 39.203C282.727 37.763 283.075 36.587 283.771 35.675C284.491 34.763 285.487 34.079 286.759 33.623C288.055 33.167 289.567 32.939 291.295 32.939H295.831V35.927H291.223C290.071 35.927 289.183 36.215 288.559 36.791C287.959 37.343 287.659 38.063 287.659 38.951C287.659 39.839 287.959 40.559 288.559 41.111C289.183 41.663 290.071 41.939 291.223 41.939C291.919 41.939 292.555 41.819 293.131 41.579C293.731 41.315 294.223 40.883 294.607 40.283C295.015 39.659 295.243 38.819 295.291 37.763L296.515 39.167C296.395 40.535 296.059 41.687 295.507 42.623C294.979 43.559 294.235 44.279 293.275 44.783C292.339 45.263 291.187 45.503 289.819 45.503Z" fill="#E36F50"/>
<rect width="64" height="64" rx="10" fill="#0F1115"/>
<path d="M34.9229 14.0088L57.5369 14.0113C56.8797 16.3376 56.0013 18.7433 55.2063 21.0384C50.0927 21.1402 44.7623 21.0763 39.6422 21.0391C38.8575 23.5121 37.9922 26.486 37.0442 28.8585C36.3837 31.0579 35.6183 33.8012 34.8428 35.9356C33.3151 40.6356 31.7554 45.3251 30.1638 50.0038L23.4025 49.9986C24.959 45.2944 26.48 40.5785 27.9653 35.8513C25.9068 36.1277 19.6 35.9515 17.2451 35.914C18.055 33.6557 18.777 31.2611 19.503 28.9659C20.5154 28.948 21.6703 28.8992 22.6696 28.916L30.2865 28.879C31.7487 23.8965 33.2944 18.9392 34.9229 14.0088Z" fill="#E36F50"/>
<path d="M19.503 28.9665C20.5154 28.9485 21.6703 28.8998 22.6696 28.9165C21.9281 29.066 21.1388 29.0706 20.7909 29.6839C19.6152 31.7571 19.3556 33.3943 18.1981 35.6635C20.0388 35.7265 26.9249 35.6272 27.9653 35.8519C25.9068 36.1283 19.6 35.952 17.2451 35.9146C18.055 33.6563 18.777 31.2616 19.503 28.9665Z" fill="#CE5939"/>
<path d="M17.4483 14.0097L24.362 14.0039C22.6259 18.9335 21.2134 24.0449 19.5013 28.9661C18.7753 31.2612 18.0533 33.6558 17.2435 35.9142C15.8922 40.532 14.2554 45.3796 12.7846 49.9835L5.99902 49.9833L17.4483 14.0097Z" fill="#E36F50"/>
<path d="M34.8398 35.9335C35.6154 33.7992 36.3807 31.0558 37.0413 28.8564C37.4566 28.9355 37.8687 29.0343 38.2893 29.0392C41.0547 28.799 49.5297 28.8368 52.4315 29.0352C51.6578 31.3261 50.8942 33.6478 50.095 35.9275C46.1781 35.9647 42.2609 35.9653 38.344 35.9292C37.215 35.9645 35.9781 35.9358 34.8398 35.9335Z" fill="#E36F50"/>
<path d="M34.8398 35.9335C35.6154 33.7992 36.3807 31.0558 37.0413 28.8564C37.4566 28.9355 37.8687 29.0343 38.2893 29.0392C37.2808 31.6224 36.8249 33.0604 35.6072 35.6494C36.4424 35.6929 37.5722 35.6927 38.344 35.9292C37.215 35.9645 35.9781 35.9358 34.8398 35.9335Z" fill="#CE5939"/>
</svg>
