<svg width="500" height="500" viewBox="0 0 500 500" fill="none" xmlns="http://www.w3.org/2000/svg">
<rect width="500" height="500" rx="10" fill="#0F1115"/>
<path d="M272.835 109.443L449.507 109.463C444.373 127.637 437.51 146.432 431.299 164.362C391.349 165.158 349.706 164.658 309.705 164.367C303.574 183.688 296.814 206.922 289.408 225.457C284.247 242.639 278.268 264.072 272.209 280.746C260.274 317.465 248.089 354.102 235.655 390.655L182.832 390.614C194.992 353.862 206.875 317.019 218.479 280.088C202.397 282.247 153.125 280.871 134.728 280.578C141.054 262.935 146.695 244.227 152.367 226.296C160.277 226.156 169.3 225.775 177.106 225.906L236.613 225.617C248.037 186.691 260.113 147.962 272.835 109.443Z" fill="#E36F50"/>
<path d="M152.367 226.301C160.277 226.161 169.3 225.78 177.106 225.911C171.313 227.078 165.147 227.114 162.429 231.906C153.244 248.102 151.216 260.894 142.173 278.622C156.553 279.113 210.351 278.338 218.479 280.093C202.397 282.252 153.125 280.876 134.728 280.583C141.054 262.94 146.695 244.232 152.367 226.301Z" fill="#CE5939"/>
<path d="M136.315 109.451L190.328 109.405C176.765 147.917 165.73 187.85 152.354 226.297C146.682 244.228 141.041 262.936 134.714 280.579C124.158 316.656 111.37 354.528 99.8793 390.496L46.8672 390.494L136.315 109.451Z" fill="#E36F50"/>
<path d="M272.187 280.731C278.246 264.056 284.224 242.624 289.385 225.441C292.63 226.059 295.849 226.831 299.135 226.869C320.74 224.992 386.951 225.288 409.621 226.838C403.577 244.736 397.611 262.874 391.367 280.684C360.767 280.975 330.163 280.979 299.563 280.697C290.742 280.973 281.079 280.749 272.187 280.731Z" fill="#E36F50"/>
<path d="M272.187 280.731C278.246 264.056 284.224 242.624 289.385 225.441C292.63 226.059 295.849 226.831 299.135 226.869C291.257 247.05 287.695 258.285 278.182 278.512C284.706 278.851 293.533 278.85 299.563 280.697C290.742 280.973 281.079 280.749 272.187 280.731Z" fill="#CE5939"/>
</svg>
